<?xml version="1.0" encoding="UTF-8" standalone="no"?>
<!-- Created with Inkscape (http://www.inkscape.org/) -->

<svg
   xmlns:dc="http://purl.org/dc/elements/1.1/"
   xmlns:cc="http://creativecommons.org/ns#"
   xmlns:rdf="http://www.w3.org/1999/02/22-rdf-syntax-ns#"
   xmlns:svg="http://www.w3.org/2000/svg"
   xmlns="http://www.w3.org/2000/svg"
   xmlns:sodipodi="http://sodipodi.sourceforge.net/DTD/sodipodi-0.dtd"
   xmlns:inkscape="http://www.inkscape.org/namespaces/inkscape"
   version="1.1"
   width="64"
   height="64"
   viewBox="0 0 63.999998 64.000002"
   id="Layer_1"
   xml:space="preserve"
   inkscape:version="0.91 r13725"
   sodipodi:docname="steinwurf_logo.svg"><sodipodi:namedview
     pagecolor="#ffffff"
     bordercolor="#666666"
     borderopacity="1"
     objecttolerance="10"
     gridtolerance="10"
     guidetolerance="10"
     inkscape:pageopacity="1"
     inkscape:pageshadow="2"
     inkscape:window-width="2560"
     inkscape:window-height="1387"
     id="namedview14"
     showgrid="false"
     inkscape:zoom="18.002807"
     inkscape:cx="19.352166"
     inkscape:cy="29.011313"
     inkscape:window-x="0"
     inkscape:window-y="34"
     inkscape:window-maximized="1"
     inkscape:current-layer="Layer_1"
     fit-margin-top="0"
     fit-margin-left="0"
     fit-margin-right="0"
     fit-margin-bottom="0" /><metadata
     id="metadata33"><rdf:RDF><cc:Work
         rdf:about=""><dc:format>image/svg+xml</dc:format><dc:type
           rdf:resource="http://purl.org/dc/dcmitype/StillImage" /><dc:title></dc:title></cc:Work></rdf:RDF></metadata><defs
     id="defs31" /><path
     style="fill:#ffffff;fill-opacity:1"
     d="M 14.830078 12.257812 L 14.830078 16.619141 L 9.9980469 16.619141 L 9.9980469 51.667969 L 13.109375 51.667969 L 13.109375 56.501953 L 52.324219 56.501953 L 52.324219 51.667969 L 56.880859 51.667969 L 56.880859 16.619141 L 54.046875 16.619141 L 54.046875 12.257812 L 14.830078 12.257812 z "
     transform="translate(-1.9073486e-6,0)"
     id="rect3333" /><path
     inkscape:connector-curvature="0"
     d="M 39.435834,4.0064983 C 14.406483,3.567234 -1.8259833,25.503827 0.16465853,37.829096 2.4472365,51.967762 20.411328,66.737196 38.428074,63.565736 65.546912,58.794453 63.472943,32.348766 64,21.94034 63.256274,10.715391 56.605557,6.0576264 44.537623,4.4155158 42.793504,4.1779715 41.104457,4.0357834 39.435834,4.0064983 Z M 33.105837,13.31951 c 3.005143,0 5.812512,0.123838 8.408503,0.377555 2.598008,0.255731 4.867484,0.747053 6.802386,1.510217 1.935907,0.764171 3.439487,1.834917 4.534922,3.209215 1.095436,1.374299 1.637611,3.160887 1.637611,5.34869 l 0,1.227053 c 0,0.407759 -0.197521,0.760396 -0.62985,1.038275 -0.434344,0.279894 -0.961908,0.409017 -1.574626,0.409017 -0.713495,0 -1.298751,-0.131137 -1.732089,-0.409017 -0.432329,-0.276873 -0.62985,-0.63555 -0.62985,-1.038275 l 0,-1.132664 c 0,-1.363224 -0.450722,-2.482547 -1.291193,-3.366529 -0.839466,-0.882974 -1.988817,-1.577423 -3.464178,-2.108013 -1.478385,-0.528576 -3.216268,-0.906132 -5.227758,-1.132664 -2.013507,-0.226533 -4.219999,-0.346092 -6.61343,-0.346092 -2.444828,0 -4.720603,0.07249 -6.833877,0.251704 -2.114283,0.179212 -3.919434,0.520521 -5.448206,1.006811 -1.527766,0.487297 -2.763281,1.187788 -3.653133,2.108015 -0.891869,0.920226 -1.322686,2.091149 -1.322686,3.523842 l 0,0.849498 c 0,1.791119 0.550489,3.137479 1.669103,4.058712 1.117607,0.921234 2.814172,1.507198 5.101789,1.761922 1.828078,0.204383 3.445786,0.363961 4.818356,0.44048 1.371561,0.07652 3.012448,0.138437 4.944326,0.188778 1.117606,0 2.139727,0.0072 3.054774,0.03146 0.914039,0.02618 1.813214,0.07551 2.676865,0.125851 0.862642,0.05033 1.725034,0.113269 2.613879,0.188778 0.887837,0.07652 1.902653,0.152028 3.023282,0.251703 1.422958,0.152029 2.814927,0.431167 4.188505,0.786573 1.371563,0.355404 2.585914,0.901097 3.653133,1.636068 1.068226,0.735981 1.916005,1.7141 2.550894,2.957512 0.63489,1.242407 0.976268,2.810264 0.976268,4.68797 l 0,2.108014 c 0,2.129407 -0.532601,3.93437 -1.574625,5.380152 -1.043033,1.445783 -2.540062,2.604373 -4.471938,3.492381 -1.932886,0.885995 -4.24091,1.498891 -6.959848,1.856311 -2.675605,0.347349 -5.690573,0.534869 -9.038354,0.534869 -3.050492,0 -5.890109,-0.122832 -8.534473,-0.377556 -2.644364,-0.253716 -4.976575,-0.746048 -6.959847,-1.510218 -1.981258,-0.76417 -3.549586,-1.82963 -4.692387,-3.177751 -1.1428,-1.348123 -1.700596,-3.127411 -1.700596,-5.317228 l 0,-3.807009 c 0,-1.069234 0.772197,-1.604606 2.298955,-1.604606 1.579161,0 2.361939,0.536378 2.361939,1.604606 l 0,3.649695 c 0,1.425646 0.405624,2.606636 1.196716,3.523843 0.788068,0.914186 1.930113,1.636322 3.432685,2.170939 1.501563,0.534617 3.301423,0.934573 5.416713,1.164126 2.113274,0.229553 4.457325,0.31463 7.054325,0.31463 2.495215,0 4.825662,-0.08608 6.991339,-0.31463 2.162655,-0.229553 4.065308,-0.64738 5.668655,-1.258514 1.604355,-0.610129 2.857757,-1.442511 3.74761,-2.485569 0.890861,-1.04205 1.322685,-2.398227 1.322685,-4.027249 l 0,-1.730459 c 0,-2.338824 -0.647234,-3.991003 -1.921043,-4.90821 -1.273809,-0.915192 -2.975918,-1.506191 -5.164773,-1.761921 -0.917062,-0.101688 -1.799609,-0.176192 -2.61388,-0.251703 -0.814271,-0.07752 -1.653735,-0.138437 -2.519402,-0.188777 -0.866674,-0.05135 -1.81019,-0.09968 -2.802834,-0.125852 -0.993652,-0.02518 -2.084301,-0.03146 -3.306715,-0.03146 -1.069234,0 -2.020057,-0.0052 -2.834326,-0.03146 -0.814271,-0.02618 -1.604356,-0.0745 -2.393432,-0.125852 -0.791092,-0.05135 -1.610654,-0.112261 -2.424925,-0.188777 -0.81427,-0.07652 -1.722011,-0.192049 -2.739849,-0.346092 -1.47637,-0.204382 -2.858009,-0.498373 -4.157013,-0.88096 -1.299004,-0.38259 -2.43475,-0.925513 -3.401193,-1.667534 C 13.651269,30.702127 12.874789,29.771832 12.28928,28.6734 11.703771,27.575974 11.407489,26.229866 11.407489,24.64615 l 0,-0.692183 c 0,-2.094169 0.531594,-3.813049 1.574627,-5.191377 1.04404,-1.379332 2.499246,-2.479778 4.408953,-3.272138 1.910714,-0.792362 4.184474,-1.336292 6.833877,-1.667533 2.648395,-0.332248 5.620785,-0.503406 8.880891,-0.503406 z"
     id="path3"
     style="fill:#8dc63f;fill-opacity:1" /></svg>