<?xml version="1.0" encoding="UTF-8" standalone="no"?>
<svg xmlns="http://www.w3.org/2000/svg" viewBox="0 0 31.75 31.75">
  <g transform="translate(0 -265.25)">
    <rect width="31.75" height="26.2" y="268.16" fill="#483e37" rx="20.41" ry="4.8"/>
    <path fill="#917c6f" d="M15.88 267.9a15.35 4.85 0 0 0-15.35 4.84 15.35 4.85 0 0 0 15.35 4.85 15.35 4.85 0 0 0 15.34-4.85 15.35 4.85 0 0 0-15.34-4.84zm0 .92a13.25 4.14 0 0 1 13.25 4.15 13.25 4.14 0 0 1-13.25 4.14 13.25 4.14 0 0 1-13.26-4.14 13.25 4.14 0 0 1 13.26-4.15zm0 .83a11.24 3.46 0 0 0-11.24 3.46 11.24 3.46 0 0 0 11.24 3.47 11.24 3.46 0 0 0 11.23-3.47 11.24 3.46 0 0 0-11.23-3.46zm0 .73a9.47 2.73 0 0 1 9.47 2.73 9.47 2.73 0 0 1-9.47 2.74 9.47 2.73 0 0 1-9.48-2.74 9.47 2.73 0 0 1 9.48-2.73zm-.03.72a7.28 1.99 0 0 0-7.27 1.98 7.28 1.99 0 0 0 7.27 1.99 7.28 1.99 0 0 0 7.28-1.99 7.28 1.99 0 0 0-7.28-1.98zm-.01.62a5 1.37 0 0 1 5 1.37 5 1.37 0 0 1-5 1.37 5 1.37 0 0 1-5-1.37 5 1.37 0 0 1 5-1.37z"/>
    <g>
      <path fill="#000000" d="M9.43 283.43H7.16v-.73q0-.5-.09-.64t-.3-.14q-.21 0-.33.19-.1.19-.1.56 0 .5.12.74.12.25.7.6 1.63 1 2.05 1.64.43.65.43 2.08 0 1.04-.24 1.53-.24.5-.91.83-.68.33-1.57.33-.99 0-1.68-.38-.7-.39-.91-.98-.22-.6-.22-1.7v-.63H6.4v1.19q0 .54.1.7.1.16.34.16.24 0 .36-.2t.12-.6q0-.85-.23-1.12-.23-.26-1.15-.88-.9-.63-1.2-.91-.3-.28-.5-.78t-.2-1.28q0-1.12.28-1.64.28-.51.9-.8.61-.3 1.49-.3.95 0 1.62.32.68.32.9.8.21.49.21 1.65z"/>
      <path fill="#ffffff" d="M9.02 283H6.74v-.73q0-.5-.08-.64-.1-.14-.3-.14-.22 0-.33.19-.11.18-.11.56 0 .5.13.74.12.24.69.6 1.63 1 2.06 1.64.42.65.42 2.08 0 1.04-.24 1.53-.23.5-.9.83-.68.33-1.57.33-.99 0-1.69-.38-.69-.39-.9-.98-.22-.6-.22-1.7v-.63h2.28v1.18q0 .55.09.7.1.16.34.16.25 0 .36-.2.12-.2.12-.58 0-.86-.22-1.13-.23-.26-1.15-.88-.91-.63-1.2-.91-.3-.28-.5-.78t-.2-1.28q0-1.12.28-1.64.28-.51.9-.8.61-.3 1.48-.3.96 0 1.63.32.67.32.89.8.22.49.22 1.65z"/>
      <path fill="#000000" d="M15.35 280.48v1.95h-1.46v7.79h-2.45v-7.8H9.99v-1.94z"/>
      <path fill="#ffffff" d="M14.93 280.05V282h-1.45v7.79h-2.45v-7.8H9.58v-1.94z"/>
      <path fill="#000000" d="M21.47 280.48v6.5q0 1.12-.07 1.57-.07.44-.4.92-.35.47-.92.71-.56.24-1.32.24-.84 0-1.49-.28-.64-.3-.96-.76-.32-.46-.38-.97-.06-.52-.06-2.17v-5.76h2.45v7.3q0 .64.06.82.07.18.28.18.23 0 .3-.2.06-.2.06-.92v-7.18z"/>
      <path fill="#ffffff" d="M21.06 280.05v6.5q0 1.11-.07 1.57-.07.44-.41.92-.35.47-.91.71t-1.32.24q-.85 0-1.5-.29-.64-.28-.96-.75-.32-.46-.38-.97-.05-.52-.05-2.17v-5.76h2.45v7.3q0 .64.06.82.07.17.27.17.24 0 .3-.19.07-.2.07-.92v-7.18z"/>
      <path fill="#000000" d="M22.42 280.48h2.45q1.15 0 1.75.18.6.2.96.76.37.57.37 1.83 0 .86-.26 1.2-.26.33-1.02.51.85.2 1.15.66.3.46.3 1.41v.9q0 .99-.22 1.47-.21.47-.69.65-.48.17-1.95.17h-2.84zm2.45 1.66v2.17h.25q.36 0 .46-.19.1-.18.1-1.05 0-.46-.09-.64-.08-.18-.21-.23-.13-.05-.5-.06zm0 3.69v2.72q.52-.01.66-.17.15-.15.15-.74v-.9q0-.63-.13-.76t-.68-.15z"/>
      <path fill="#ffffff" d="M22 280.05h2.45q1.16 0 1.76.18.6.19.96.76.37.57.37 1.83 0 .86-.26 1.2-.26.33-1.02.51.85.2 1.15.66.3.46.3 1.41v.9q0 .99-.22 1.46-.21.48-.7.65-.47.18-1.95.18h-2.83zm2.46 1.66v2.17h.24q.36 0 .46-.19.1-.18.1-1.05 0-.46-.08-.64t-.21-.23q-.13-.05-.51-.06zm0 3.69v2.72q.52-.02.66-.17.14-.15.14-.74v-.9q0-.63-.13-.76-.12-.14-.67-.15z"/>
    </g>
  </g>
</svg>
